<mxfile host="www.draw.io" modified="2020-02-26T05:30:04.362Z" agent="Mozilla/5.0 (Windows NT 10.0; Win64; x64) AppleWebKit/537.36 (KHTML, like Gecko) Chrome/80.0.3987.122 Safari/537.36" etag="gYRnTiBg2q7x9PEVCO9C" version="12.7.6" type="github">
  <diagram id="HHkCW6bzJHq7u3sb4jT1" name="第 1 页">
    <mxGraphModel dx="1865" dy="539" grid="1" gridSize="10" guides="1" tooltips="1" connect="1" arrows="1" fold="1" page="1" pageScale="1" pageWidth="827" pageHeight="1169" math="0" shadow="0">
      <root>
        <mxCell id="0" />
        <mxCell id="1" parent="0" />
        <mxCell id="LPsa5BOYDRLZkjnAQ2Mv-16" value="" style="rounded=0;whiteSpace=wrap;html=1;fillColor=#ffffff;" parent="1" vertex="1">
          <mxGeometry x="-130" y="10" width="970" height="480" as="geometry" />
        </mxCell>
        <mxCell id="LPsa5BOYDRLZkjnAQ2Mv-1" value="对话交互（前端）" style="rounded=0;whiteSpace=wrap;html=1;fillColor=#dae8fc;strokeColor=#6c8ebf;" parent="1" vertex="1">
          <mxGeometry x="140" y="100" width="120" height="60" as="geometry" />
        </mxCell>
        <mxCell id="LPsa5BOYDRLZkjnAQ2Mv-2" value="对话后台（前端）" style="rounded=0;whiteSpace=wrap;html=1;fillColor=#1ba1e2;strokeColor=none;fontColor=#ffffff;" parent="1" vertex="1">
          <mxGeometry x="380" y="100" width="120" height="60" as="geometry" />
        </mxCell>
        <mxCell id="LPsa5BOYDRLZkjnAQ2Mv-3" value="对话后台（后端）" style="rounded=0;whiteSpace=wrap;html=1;fillColor=#60a917;strokeColor=none;fontColor=#ffffff;" parent="1" vertex="1">
          <mxGeometry x="140" y="250" width="360" height="60" as="geometry" />
        </mxCell>
        <mxCell id="LPsa5BOYDRLZkjnAQ2Mv-4" value="对话模型-FAQ" style="rounded=0;whiteSpace=wrap;html=1;fillColor=#f0a30a;strokeColor=#BD7000;fontColor=#ffffff;" parent="1" vertex="1">
          <mxGeometry x="140" y="390" width="120" height="60" as="geometry" />
        </mxCell>
        <mxCell id="LPsa5BOYDRLZkjnAQ2Mv-5" value="对话模型-多轮" style="rounded=0;whiteSpace=wrap;html=1;fillColor=#a0522d;strokeColor=#6D1F00;fontColor=#ffffff;" parent="1" vertex="1">
          <mxGeometry x="380" y="390" width="120" height="60" as="geometry" />
        </mxCell>
        <mxCell id="LPsa5BOYDRLZkjnAQ2Mv-6" value="" style="endArrow=classic;startArrow=classic;html=1;entryX=0.5;entryY=1;entryDx=0;entryDy=0;exitX=0.25;exitY=0;exitDx=0;exitDy=0;strokeColor=#0000FF;" parent="1" source="LPsa5BOYDRLZkjnAQ2Mv-3" target="LPsa5BOYDRLZkjnAQ2Mv-1" edge="1">
          <mxGeometry width="50" height="50" relative="1" as="geometry">
            <mxPoint x="70" y="380" as="sourcePoint" />
            <mxPoint x="120" y="330" as="targetPoint" />
          </mxGeometry>
        </mxCell>
        <mxCell id="LPsa5BOYDRLZkjnAQ2Mv-7" value="" style="endArrow=classic;startArrow=classic;html=1;entryX=0.5;entryY=1;entryDx=0;entryDy=0;exitX=0.75;exitY=0;exitDx=0;exitDy=0;" parent="1" source="LPsa5BOYDRLZkjnAQ2Mv-3" target="LPsa5BOYDRLZkjnAQ2Mv-2" edge="1">
          <mxGeometry width="50" height="50" relative="1" as="geometry">
            <mxPoint x="209.76" y="257.17999999999995" as="sourcePoint" />
            <mxPoint x="210" y="170" as="targetPoint" />
          </mxGeometry>
        </mxCell>
        <mxCell id="LPsa5BOYDRLZkjnAQ2Mv-8" value="" style="endArrow=classic;startArrow=classic;html=1;entryX=0.5;entryY=0;entryDx=0;entryDy=0;exitX=0.25;exitY=1;exitDx=0;exitDy=0;" parent="1" source="LPsa5BOYDRLZkjnAQ2Mv-3" target="LPsa5BOYDRLZkjnAQ2Mv-4" edge="1">
          <mxGeometry width="50" height="50" relative="1" as="geometry">
            <mxPoint x="209.76" y="257.17999999999995" as="sourcePoint" />
            <mxPoint x="210" y="170" as="targetPoint" />
          </mxGeometry>
        </mxCell>
        <mxCell id="LPsa5BOYDRLZkjnAQ2Mv-9" value="" style="endArrow=classic;startArrow=classic;html=1;entryX=0.5;entryY=0;entryDx=0;entryDy=0;exitX=0.75;exitY=1;exitDx=0;exitDy=0;" parent="1" source="LPsa5BOYDRLZkjnAQ2Mv-3" target="LPsa5BOYDRLZkjnAQ2Mv-5" edge="1">
          <mxGeometry width="50" height="50" relative="1" as="geometry">
            <mxPoint x="210.48000000000002" y="322.81999999999994" as="sourcePoint" />
            <mxPoint x="210" y="400" as="targetPoint" />
          </mxGeometry>
        </mxCell>
        <mxCell id="LPsa5BOYDRLZkjnAQ2Mv-10" value="" style="endArrow=none;dashed=1;html=1;" parent="1" edge="1">
          <mxGeometry width="50" height="50" relative="1" as="geometry">
            <mxPoint x="815" y="210" as="sourcePoint" />
            <mxPoint x="65" y="210" as="targetPoint" />
          </mxGeometry>
        </mxCell>
        <mxCell id="LPsa5BOYDRLZkjnAQ2Mv-11" value="" style="endArrow=none;dashed=1;html=1;" parent="1" edge="1">
          <mxGeometry width="50" height="50" relative="1" as="geometry">
            <mxPoint x="815" y="360" as="sourcePoint" />
            <mxPoint x="65" y="360" as="targetPoint" />
          </mxGeometry>
        </mxCell>
        <mxCell id="LPsa5BOYDRLZkjnAQ2Mv-12" value="展示层：&lt;br&gt;vue.js+ vue-router +vuex+&amp;nbsp; axios" style="text;html=1;strokeColor=none;fillColor=none;align=left;verticalAlign=middle;whiteSpace=wrap;rounded=0;fontFamily=Comic Sans MS;fontSize=14;" parent="1" vertex="1">
          <mxGeometry x="560" y="110" width="240" height="40" as="geometry" />
        </mxCell>
        <mxCell id="LPsa5BOYDRLZkjnAQ2Mv-13" value="逻辑层：&lt;br&gt;java+Springboot+Mybatis+Spring security+MySQL" style="text;html=1;strokeColor=none;fillColor=none;align=left;verticalAlign=middle;whiteSpace=wrap;rounded=0;fontFamily=Comic Sans MS;fontSize=14;" parent="1" vertex="1">
          <mxGeometry x="560" y="250" width="240" height="60" as="geometry" />
        </mxCell>
        <mxCell id="LPsa5BOYDRLZkjnAQ2Mv-14" value="模型层&lt;br&gt;python+Django+tensorflow+rasa+bert" style="text;html=1;strokeColor=none;fillColor=none;align=left;verticalAlign=middle;whiteSpace=wrap;rounded=0;fontFamily=Comic Sans MS;fontSize=14;" parent="1" vertex="1">
          <mxGeometry x="560" y="400" width="240" height="40" as="geometry" />
        </mxCell>
        <mxCell id="Ur6VNwOXApjiECsttCF5-1" value="人脸识别&lt;br&gt;（其他项目）" style="rounded=0;whiteSpace=wrap;html=1;dashed=1;" vertex="1" parent="1">
          <mxGeometry x="-100" y="245" width="120" height="60" as="geometry" />
        </mxCell>
        <mxCell id="Ur6VNwOXApjiECsttCF5-2" value="语音识别&lt;br&gt;（其他项目）" style="rounded=0;whiteSpace=wrap;html=1;dashed=1;" vertex="1" parent="1">
          <mxGeometry x="-100" y="330" width="120" height="60" as="geometry" />
        </mxCell>
        <mxCell id="Ur6VNwOXApjiECsttCF5-3" value="" style="endArrow=classic;startArrow=classic;html=1;entryX=1;entryY=0.5;entryDx=0;entryDy=0;exitX=0;exitY=1;exitDx=0;exitDy=0;strokeColor=#0000FF;" edge="1" parent="1" source="LPsa5BOYDRLZkjnAQ2Mv-1" target="Ur6VNwOXApjiECsttCF5-1">
          <mxGeometry width="50" height="50" relative="1" as="geometry">
            <mxPoint x="240" y="320" as="sourcePoint" />
            <mxPoint x="210" y="400" as="targetPoint" />
          </mxGeometry>
        </mxCell>
        <mxCell id="Ur6VNwOXApjiECsttCF5-4" value="" style="endArrow=classic;startArrow=classic;html=1;entryX=1;entryY=0.5;entryDx=0;entryDy=0;exitX=0.25;exitY=1;exitDx=0;exitDy=0;strokeColor=#0000FF;" edge="1" parent="1" source="LPsa5BOYDRLZkjnAQ2Mv-1" target="Ur6VNwOXApjiECsttCF5-2">
          <mxGeometry width="50" height="50" relative="1" as="geometry">
            <mxPoint x="330" y="320" as="sourcePoint" />
            <mxPoint x="270" y="520" as="targetPoint" />
          </mxGeometry>
        </mxCell>
        <mxCell id="Ur6VNwOXApjiECsttCF5-5" value="" style="endArrow=none;dashed=1;html=1;" edge="1" parent="1">
          <mxGeometry width="50" height="50" relative="1" as="geometry">
            <mxPoint x="80" y="450" as="sourcePoint" />
            <mxPoint x="80" y="100" as="targetPoint" />
            <Array as="points">
              <mxPoint x="80.5" y="280" />
            </Array>
          </mxGeometry>
        </mxCell>
        <mxCell id="Ur6VNwOXApjiECsttCF5-6" value="其他系统依赖：" style="text;html=1;strokeColor=none;fillColor=none;align=left;verticalAlign=middle;whiteSpace=wrap;rounded=0;fontFamily=Comic Sans MS;fontSize=14;" vertex="1" parent="1">
          <mxGeometry x="-100" y="100" width="110" height="40" as="geometry" />
        </mxCell>
        <mxCell id="Ur6VNwOXApjiECsttCF5-7" value="3D数字人/语音合成&lt;br&gt;（其他项目）" style="rounded=0;whiteSpace=wrap;html=1;dashed=1;" vertex="1" parent="1">
          <mxGeometry x="-100" y="160" width="120" height="60" as="geometry" />
        </mxCell>
        <mxCell id="Ur6VNwOXApjiECsttCF5-8" value="" style="endArrow=classic;startArrow=classic;html=1;entryX=1;entryY=0.5;entryDx=0;entryDy=0;exitX=0;exitY=0.75;exitDx=0;exitDy=0;strokeColor=#0000FF;" edge="1" parent="1" source="LPsa5BOYDRLZkjnAQ2Mv-1" target="Ur6VNwOXApjiECsttCF5-7">
          <mxGeometry width="50" height="50" relative="1" as="geometry">
            <mxPoint x="150" y="170" as="sourcePoint" />
            <mxPoint x="30" y="285" as="targetPoint" />
          </mxGeometry>
        </mxCell>
        <mxCell id="Ur6VNwOXApjiECsttCF5-10" value="&lt;font style=&quot;font-size: 18px&quot;&gt;对话产品系统架构&lt;/font&gt;" style="text;html=1;strokeColor=none;fillColor=none;align=left;verticalAlign=middle;whiteSpace=wrap;rounded=0;fontFamily=Comic Sans MS;fontSize=14;" vertex="1" parent="1">
          <mxGeometry x="270" y="26" width="170" height="40" as="geometry" />
        </mxCell>
      </root>
    </mxGraphModel>
  </diagram>
</mxfile>
